<svg width="106" height="104" viewBox="0 0 106 104" fill="none" xmlns="http://www.w3.org/2000/svg">
<circle cx="55.5" cy="53.5" r="50.5" fill="#EDEDED"/>
<circle cx="45" cy="45" r="11.25" stroke="#5C5C5C" stroke-width="4"/>
<path d="M51.6204 8.0709C50.2422 7.5 48.4949 7.5 45.0003 7.5C41.5058 7.5 39.7585 7.5 38.3802 8.0709C36.5425 8.83211 35.0824 10.2922 34.3212 12.1299C33.9737 12.9688 33.8378 13.9444 33.7845 15.3675C33.7063 17.4588 32.6338 19.3946 30.8214 20.441C29.009 21.4874 26.7963 21.4483 24.9461 20.4703C23.687 19.8049 22.7741 19.4348 21.8739 19.3163C19.9018 19.0567 17.9073 19.5911 16.3292 20.802C15.1457 21.7102 14.272 23.2234 12.5247 26.2497C10.7775 29.2761 9.90382 30.7893 9.70909 32.2684C9.44946 34.2405 9.98388 36.235 11.1948 37.813C11.7475 38.5333 12.5243 39.1388 13.7298 39.8963C15.5021 41.0099 16.6425 42.907 16.6423 45.0001C16.6422 47.093 15.5019 48.9897 13.7298 50.1032C12.524 50.8608 11.7472 51.4663 11.1944 52.1867C9.98351 53.7648 9.44909 55.7592 9.70872 57.7314C9.90345 59.2104 10.7771 60.7236 12.5244 63.75C14.2717 66.7764 15.1453 68.2896 16.3288 69.1977C17.9069 70.4086 19.9014 70.9431 21.8735 70.6834C22.7737 70.5649 23.6866 70.1949 24.9455 69.5295C26.7959 68.5515 29.0087 68.5124 30.8212 69.5589C32.6338 70.6054 33.7063 72.5413 33.7845 74.6327C33.8378 76.0557 33.9738 77.0313 34.3212 77.8701C35.0824 79.7078 36.5425 81.1679 38.3802 81.9291C39.7585 82.5 41.5058 82.5 45.0003 82.5C48.4949 82.5 50.2422 82.5 51.6204 81.9291C53.4582 81.1679 54.9182 79.7078 55.6794 77.8701C56.0269 77.0312 56.1629 76.0556 56.2161 74.6324C56.2943 72.5411 57.3667 70.6054 59.179 69.5589C60.9915 68.5123 63.2045 68.5513 65.0549 69.5293C66.3138 70.1947 67.2266 70.5647 68.1268 70.6832C70.0989 70.9428 72.0934 70.4084 73.6714 69.1975C74.855 68.2893 75.7286 66.7761 77.4759 63.7497C79.2232 60.7234 80.0968 59.2102 80.2916 57.7311C80.5512 55.759 80.0168 53.7645 78.8059 52.1864C78.2531 51.4661 77.4763 50.8606 76.2706 50.103C74.4984 48.9895 73.3582 47.0926 73.3583 44.9997C73.3584 42.9069 74.4986 41.0103 76.2706 39.897C77.4765 39.1393 78.2534 38.5337 78.8062 37.8133C80.0171 36.2352 80.5516 34.2408 80.2919 32.2687C80.0972 30.7896 79.2236 29.2764 77.4763 26.25C75.729 23.2236 74.8553 21.7104 73.6718 20.8023C72.0937 19.5914 70.0992 19.0569 68.1271 19.3166C67.2269 19.4351 66.3141 19.8051 65.0551 20.4705C63.2048 21.4485 60.9919 21.4876 59.1794 20.4411C57.3669 19.3946 56.2943 17.4587 56.2161 15.3673C56.1629 13.9443 56.0269 12.9687 55.6794 12.1299C54.9182 10.2922 53.4582 8.83211 51.6204 8.0709Z" stroke="#5C5C5C" stroke-width="4"/>
</svg>
