<svg width="112" height="114" viewBox="0 0 112 114" fill="none" xmlns="http://www.w3.org/2000/svg">
<circle cx="61.5" cy="63.5" r="50.5" fill="#EDEDED"/>
<path d="M82.5 82.5H45C27.3223 82.5 18.4835 82.5 12.9917 77.0083C7.5 71.5165 7.5 62.6777 7.5 45V7.5" stroke="#5C5C5C" stroke-width="4" stroke-linecap="round"/>
<path d="M71.2506 26.25L59.558 40.974C57.767 43.2294 56.8715 44.3571 55.8434 44.9067C54.2626 45.7518 52.3738 45.7929 50.7578 45.0174C49.7067 44.513 48.763 43.4253 46.8756 41.2499C44.9882 39.0746 44.0444 37.9869 42.9934 37.4826C41.3775 36.7071 39.4886 36.7481 37.9079 37.5932C36.8798 38.1428 35.9843 39.2704 34.1932 41.5258L22.5 56.25" stroke="#5C5C5C" stroke-width="4" stroke-linecap="round"/>
</svg>
