<svg width="109" height="108" viewBox="0 0 109 108" fill="none" xmlns="http://www.w3.org/2000/svg">
<circle cx="58.5" cy="57.5" r="50.5" fill="#EDEDED"/>
<path d="M26.25 67.4935C18.0937 67.4481 13.6765 67.0864 10.7951 64.2049C7.5 60.9099 7.5 55.6066 7.5 45L7.5 30C7.5 19.3934 7.5 14.0901 10.795 10.795C14.0901 7.5 19.3934 7.5 30 7.5L60 7.5C70.6066 7.5 75.9099 7.5 79.205 10.795C82.5 14.0901 82.5 19.3934 82.5 30V45C82.5 55.6066 82.5 60.9099 79.205 64.2049C76.468 66.9419 72.3453 67.4055 64.9487 67.484L61.875 67.4935" stroke="#5C5C5C" stroke-width="4"/>
<path d="M33.75 22.5H56.25" stroke="#5C5C5C" stroke-width="4" stroke-linecap="round"/>
<path d="M26.25 35.625H63.75" stroke="#5C5C5C" stroke-width="4" stroke-linecap="round"/>
<path d="M40.8387 52.2958C43.2358 50.253 46.7616 50.253 49.1587 52.2958C50.186 53.1712 51.4632 53.7003 52.8086 53.8076C55.9481 54.0582 58.4412 56.5512 58.6917 59.6908C58.7991 61.0362 59.3281 62.3134 60.2036 63.3406C62.2464 65.7378 62.2464 69.2635 60.2036 71.6607C59.3281 72.6879 58.7991 73.9651 58.6917 75.3105C58.4412 78.4501 55.9481 80.9432 52.8086 81.1937C51.4632 81.3011 50.186 81.8301 49.1587 82.7055C46.7616 84.7484 43.2358 84.7484 40.8387 82.7055C39.8114 81.8301 38.5342 81.3011 37.1888 81.1937C34.0493 80.9432 31.5562 78.4501 31.3057 75.3105C31.1983 73.9651 30.6693 72.6879 29.7939 71.6607C27.751 69.2635 27.751 65.7378 29.7939 63.3406C30.6693 62.3134 31.1983 61.0362 31.3057 59.6908C31.5562 56.5512 34.0493 54.0582 37.1888 53.8076C38.5342 53.7003 39.8114 53.1712 40.8387 52.2958Z" stroke="#5C5C5C" stroke-width="4"/>
<path d="M39.375 68.25L42.5893 71.25L50.625 63.75" stroke="#5C5C5C" stroke-width="4" stroke-linecap="round" stroke-linejoin="round"/>
</svg>
