<svg width="106" height="59" viewBox="0 0 106 59" fill="none" xmlns="http://www.w3.org/2000/svg">
<path d="M34.6033 20.3453C33.1078 21.807 30.6425 22.4963 28.6212 22.4963C23.2754 22.4963 21.0312 19.2427 21.0312 15.1625C21.0312 10.8892 23.9117 8.04883 28.4272 8.04883C32.9972 8.04883 35.8777 10.4471 35.0746 16.6242H24.9649C25.1588 18.0029 26.406 19.0225 28.7046 19.0225C29.8122 19.0225 31.3911 18.6092 32.3336 17.8369L34.6033 20.3453ZM31.5289 13.6991C31.585 12.0172 30.1712 11.3279 28.4545 11.3279C26.765 11.3279 25.2694 12.1002 24.936 13.6991H31.5289Z" fill="black"/>
<path d="M45.3185 18.8285V22.1093H37.424V18.8285H39.3636V11.8538H36.8711V8.79322H39.3636V8.04798C39.3636 3.8018 42.0229 2.5603 44.7639 2.5332C45.7048 2.5332 46.564 2.69919 47.5338 3.19545L46.6201 6.14592C46.1216 5.92574 45.5959 5.84274 45.1246 5.84274C43.9608 5.84274 43.1578 6.55919 43.1578 8.10387V8.79322H46.0655V11.8538H43.1578V18.8302H45.3185V18.8285Z" fill="black"/>
<path d="M61.2439 20.3453C59.7484 21.807 57.2831 22.4963 55.2618 22.4963C49.916 22.4963 47.6719 19.2427 47.6719 15.1625C47.6719 10.8892 50.5523 8.04883 55.0679 8.04883C59.6378 8.04883 62.5183 10.4471 61.7152 16.6242H51.6055C51.7995 18.0029 53.0466 19.0225 55.3452 19.0225C56.4528 19.0225 58.0317 18.6092 58.9743 17.8369L61.2439 20.3453ZM58.1695 13.6991C58.2257 12.0172 56.8118 11.3279 55.0951 11.3279C53.4056 11.3279 51.9101 12.1002 51.5766 13.6991H58.1695Z" fill="black"/>
<path d="M72.157 12.8181L71.9903 11.2463C71.5752 11.0261 70.6887 10.8601 69.8857 10.8601C68.7508 10.8601 67.6705 11.2734 67.6705 12.376C67.6705 13.3685 69.0282 13.4515 69.8585 13.5057C73.2647 13.6988 76.0635 14.6083 76.0635 18.1381C75.9801 20.7295 73.7649 22.6044 69.9418 22.6044C67.781 22.6044 65.6764 22.1912 63.793 21.0055L63.9036 17.1997H67.1719L67.3098 18.7156C67.8355 19.0188 68.7219 19.239 70.0235 19.2678C71.4357 19.2949 72.2387 18.8816 72.2387 17.9992C72.2387 17.3098 71.4067 16.7577 69.6066 16.6764C66.3655 16.2902 63.8457 15.628 63.8457 12.4302C63.7896 9.14946 67.0307 7.88086 70.0218 7.88086C71.8219 7.88086 73.7887 8.26703 75.3676 9.03937L75.3404 12.8164H72.157V12.8181Z" fill="black"/>
<path d="M83.451 4.76758V8.54459H86.9967V11.8253H83.3965V17.1741C83.3965 18.856 84.8921 19.2693 86.4982 18.5799L87.4391 21.7506C86.1103 22.2468 85.3617 22.3298 84.1434 22.3298C80.9857 22.3027 79.6007 20.8681 79.6007 17.1741V11.8253H77.2188V8.54459H79.6007V5.18085L83.451 4.76758Z" fill="black"/>
<path d="M16.8469 48.5365C15.2952 50.1624 13.3573 50.7417 11.3071 50.7417C7.06893 50.7417 3.74609 48.4806 3.74609 43.6009C3.74609 38.1963 7.79032 36.4043 11.2237 36.4043C13.08 36.4043 14.7695 36.7346 16.2088 37.5628L16.0149 41.809H12.6921V39.9899C12.1935 39.8527 11.5011 39.7968 11.1965 39.7968C8.53724 39.7968 7.59636 41.6989 7.59636 43.5738C7.59636 46.111 9.06467 47.1307 11.3905 47.1307C12.3875 47.1307 13.5513 46.8817 14.5483 45.9451L16.8469 48.5365Z" fill="black"/>
<path d="M35.1791 47.0765V50.4131H29.9456L29.6955 48.8684C28.1166 50.4131 26.4271 50.7705 24.6814 50.7705C20.8039 50.7705 18.1719 48.2333 18.1719 43.7669C18.1719 40.0729 20.6916 36.6262 24.8192 36.4043C26.7299 36.4043 28.3922 36.6245 29.6938 38.1421L29.8605 36.7363H35.0685V40.1559H33.3228V47.0765H35.1791ZM22.0238 43.7669C22.0238 45.8621 23.4632 47.4067 25.7346 47.4067C28.1438 47.4067 29.6393 45.8079 29.6393 43.7398C29.6665 41.5888 28.3922 40.1 25.8996 40.1C23.6027 40.1 22.0238 41.6989 22.0238 43.7669Z" fill="black"/>
<path d="M37.0352 40.0478V36.7112H42.4915L42.7417 38.7521C43.8782 37.4276 45.3737 36.5469 47.5056 36.5469C51.6332 36.5469 54.0151 39.1112 54.0151 43.6605C54.0151 48.0998 51.5226 50.8013 46.9526 50.8013C45.5677 50.8013 43.9343 50.3609 42.6311 48.9822V53.1725H44.6251V56.6192H37.2019V53.1725H38.9186V40.0478H37.0352ZM50.1087 43.7147C50.1087 41.5095 48.8344 40.268 46.7025 40.268C44.375 40.268 43.2129 42.06 43.2129 43.7977C43.2129 45.4796 44.2933 47.3545 46.5919 47.3545C48.7527 47.3545 50.1087 45.9487 50.1087 43.7147Z" fill="black"/>
<path d="M61.83 36.7093V47.0495H63.4089V50.4133H56.1797V47.0495H57.9253V40.0189H56.2086V36.711H61.83V36.7093ZM57.6752 33.1254C57.6752 31.7196 58.7828 30.9473 59.9194 30.9473C61.1376 30.9473 62.2469 31.7467 62.2469 33.1813C62.2469 34.5329 61.1393 35.3323 59.9755 35.3323C58.7828 35.3035 57.6752 34.5041 57.6752 33.1254Z" fill="black"/>
<path d="M70.8572 33.0703V36.8473H74.4029V40.1281H70.8028V45.4769C70.8028 47.1587 72.2983 47.572 73.9044 46.8827L74.8453 50.0533C73.5165 50.5496 72.7679 50.6326 71.5497 50.6326C68.3919 50.6055 67.007 49.1709 67.007 45.4769V40.1281H64.625V36.8473H67.007V33.4836L70.8572 33.0703Z" fill="black"/>
<path d="M93.1791 47.0765V50.4131H87.9439L87.6955 48.8684C86.1166 50.4131 84.4271 50.7705 82.6814 50.7705C78.8039 50.7705 76.1719 48.2333 76.1719 43.7669C76.1719 40.0729 78.6916 36.6262 82.8192 36.4043C84.7299 36.4043 86.3922 36.6245 87.6938 38.1421L87.8605 36.7363H93.0685V40.1559H91.3228V47.0765H93.1791ZM80.0221 43.7669C80.0221 45.8621 81.4632 47.4067 83.7329 47.4067C86.1421 47.4067 87.6376 45.8079 87.6376 43.7398C87.6648 41.5888 86.3905 40.1 83.8979 40.1C81.601 40.1 80.0221 41.6989 80.0221 43.7669Z" fill="black"/>
<path d="M95.2278 31.1133H100.822V47.0496H102.484V50.4133H95.1172V47.0496H97.0006V34.4499H95.2278V31.1133Z" fill="black"/>
<path d="M19.0621 15.0241C19.0621 13.9011 18.7984 12.5953 17.57 11.1607L14.6265 13.1813C14.9702 13.725 15.1557 14.3805 15.1557 15.1071C15.1557 17.2852 13.604 18.5809 11.3888 18.5809C8.84009 18.5809 7.67803 16.9532 7.67803 15.1071C7.67803 13.3422 8.89623 11.6044 11.4177 11.6044C11.8737 11.6044 12.2922 11.6637 12.6733 11.7704L13.946 8.44395C13.0732 8.20853 11.9894 8.10352 11.4177 8.10352C7.70695 8.10352 3.74609 10.4188 3.74609 15.1071C3.74609 19.3532 6.4326 21.9175 11.4194 21.9175C13.9681 21.9175 14.9362 23.1032 14.9362 24.426C14.9362 26.2738 13.0528 26.7413 11.3071 26.7701C9.39644 26.743 7.7614 25.9147 7.62358 23.7637H3.82946C3.77332 27.5966 6.26757 30.271 11.1965 30.2439C15.1302 30.2168 18.8681 28.6179 18.8681 24.3718C18.8681 23.4893 18.7848 21.5043 16.1816 20.0155C18.1212 18.9112 19.0621 17.3394 19.0621 15.0241Z" fill="black"/>
<path d="M11.25 15.5017L14.6307 13.1796L17.5741 11.159L24.5107 6.39453L14.7294 6.40131L13.9501 8.44225L12.6775 11.7687L11.25 15.5017Z" fill="#F7901E"/>
</svg>
