<svg width="30" height="32" viewBox="0 0 30 32" fill="none" xmlns="http://www.w3.org/2000/svg">
<path fill-rule="evenodd" clip-rule="evenodd" d="M29.5984 15.8198C29.5984 24.5569 22.9726 31.6397 14.7992 31.6397C6.62583 31.6397 0 24.5569 0 15.8198C0 7.08279 6.62583 0 14.7992 0C22.9726 0 29.5984 7.08279 29.5984 15.8198ZM15.3295 11.6789C13.8901 12.3189 11.0132 13.6436 6.69898 15.6528C5.9984 15.9506 5.63142 16.242 5.59801 16.5269C5.54155 17.0083 6.10555 17.1979 6.87358 17.456C6.97805 17.4912 7.0863 17.5275 7.19727 17.5661C7.95289 17.8287 8.96934 18.1358 9.49775 18.148C9.97706 18.1591 10.512 17.9479 11.1027 17.5143C15.1336 14.6057 17.2144 13.1355 17.3451 13.1038C17.4372 13.0814 17.5649 13.0533 17.6515 13.1355C17.738 13.2178 17.7295 13.3735 17.7203 13.4152C17.6645 13.6698 15.4505 15.8701 14.3048 17.0087C13.9476 17.3636 13.6943 17.6154 13.6425 17.6729C13.5265 17.8017 13.4082 17.9236 13.2946 18.0407C12.5926 18.7641 12.0662 19.3066 13.3237 20.1924C13.9281 20.6181 14.4117 20.9702 14.8941 21.3214C15.421 21.7049 15.9465 22.0875 16.6264 22.5639C16.7997 22.6853 16.9651 22.8114 17.1262 22.9342C17.7394 23.4015 18.2903 23.8213 18.9708 23.7543C19.3663 23.7154 19.7748 23.3179 19.9822 22.1324C20.4725 19.3307 21.4362 13.2603 21.6589 10.7588C21.6784 10.5396 21.6539 10.2591 21.6342 10.136C21.6144 10.0129 21.5733 9.83745 21.4235 9.70758C21.2462 9.55378 20.9725 9.52135 20.8501 9.52365C20.2934 9.53414 19.4394 9.85157 15.3295 11.6789Z" fill="white"/>
</svg>
