<svg width="32" height="32" viewBox="0 0 32 32" fill="none" xmlns="http://www.w3.org/2000/svg">
<path fill-rule="evenodd" clip-rule="evenodd" d="M2.34519 2.22409C0.121094 4.44818 0.121094 8.02778 0.121094 15.187V16.4526C0.121094 23.6119 0.121094 27.1915 2.34519 29.4156C4.56928 31.6397 8.14887 31.6397 15.3081 31.6397H16.5737C23.733 31.6397 27.3126 31.6397 29.5367 29.4156C31.7608 27.1915 31.7608 23.6119 31.7608 16.4526V15.187C31.7608 8.02778 31.7608 4.44818 29.5367 2.22409C27.3126 0 23.733 0 16.5737 0H15.3081C8.14887 0 4.56928 0 2.34519 2.22409ZM5.46037 9.6238C5.63175 17.8501 9.7449 22.7938 16.9561 22.7938H17.3649V18.0874C20.0147 18.3511 22.0184 20.289 22.8226 22.7938H26.5667C25.5384 19.0498 22.8357 16.98 21.1482 16.189C22.8357 15.2135 25.2087 12.8405 25.7755 9.6238H22.3742C21.6359 12.2341 19.4478 14.6071 17.3649 14.8312V9.6238H13.9635V18.7466C11.8541 18.2192 9.1912 15.6617 9.07255 9.6238H5.46037Z" fill="white"/>
</svg>
