<svg width="81" height="77" viewBox="0 0 81 77" fill="none" xmlns="http://www.w3.org/2000/svg">
<circle cx="47" cy="43" r="34" fill="#EDEDED"/>
<path d="M54.4375 10.4688H12.5625C9.09346 10.4688 6.28125 13.281 6.28125 16.75V54.4375C6.28125 57.9065 9.09346 60.7188 12.5625 60.7188H54.4375C57.9065 60.7188 60.7188 57.9065 60.7188 54.4375V16.75C60.7188 13.281 57.9065 10.4688 54.4375 10.4688Z" stroke="#656565" stroke-width="4.1875" stroke-linejoin="round"/>
<path d="M38.7344 33.5C40.4689 33.5 41.875 32.0939 41.875 30.3594C41.875 28.6249 40.4689 27.2188 38.7344 27.2188C36.9999 27.2188 35.5938 28.6249 35.5938 30.3594C35.5938 32.0939 36.9999 33.5 38.7344 33.5Z" fill="#656565"/>
<path d="M49.2031 33.5C50.9376 33.5 52.3438 32.0939 52.3438 30.3594C52.3438 28.6249 50.9376 27.2188 49.2031 27.2188C47.4686 27.2188 46.0625 28.6249 46.0625 30.3594C46.0625 32.0939 47.4686 33.5 49.2031 33.5Z" fill="#656565"/>
<path d="M38.7344 43.9688C40.4689 43.9688 41.875 42.5626 41.875 40.8281C41.875 39.0936 40.4689 37.6875 38.7344 37.6875C36.9999 37.6875 35.5938 39.0936 35.5938 40.8281C35.5938 42.5626 36.9999 43.9688 38.7344 43.9688Z" fill="#656565"/>
<path d="M49.2031 43.9688C50.9376 43.9688 52.3438 42.5626 52.3438 40.8281C52.3438 39.0936 50.9376 37.6875 49.2031 37.6875C47.4686 37.6875 46.0625 39.0936 46.0625 40.8281C46.0625 42.5626 47.4686 43.9688 49.2031 43.9688Z" fill="#656565"/>
<path d="M17.7969 43.9688C19.5314 43.9688 20.9375 42.5626 20.9375 40.8281C20.9375 39.0936 19.5314 37.6875 17.7969 37.6875C16.0624 37.6875 14.6562 39.0936 14.6562 40.8281C14.6562 42.5626 16.0624 43.9688 17.7969 43.9688Z" fill="#656565"/>
<path d="M28.2656 43.9688C30.0001 43.9688 31.4062 42.5626 31.4062 40.8281C31.4062 39.0936 30.0001 37.6875 28.2656 37.6875C26.5311 37.6875 25.125 39.0936 25.125 40.8281C25.125 42.5626 26.5311 43.9688 28.2656 43.9688Z" fill="#656565"/>
<path d="M17.7969 54.4375C19.5314 54.4375 20.9375 53.0314 20.9375 51.2969C20.9375 49.5624 19.5314 48.1562 17.7969 48.1562C16.0624 48.1562 14.6562 49.5624 14.6562 51.2969C14.6562 53.0314 16.0624 54.4375 17.7969 54.4375Z" fill="#656565"/>
<path d="M28.2656 54.4375C30.0001 54.4375 31.4062 53.0314 31.4062 51.2969C31.4062 49.5624 30.0001 48.1562 28.2656 48.1562C26.5311 48.1562 25.125 49.5624 25.125 51.2969C25.125 53.0314 26.5311 54.4375 28.2656 54.4375Z" fill="#656565"/>
<path d="M38.7344 54.4375C40.4689 54.4375 41.875 53.0314 41.875 51.2969C41.875 49.5624 40.4689 48.1562 38.7344 48.1562C36.9999 48.1562 35.5938 49.5624 35.5938 51.2969C35.5938 53.0314 36.9999 54.4375 38.7344 54.4375Z" fill="#656565"/>
<path d="M16.75 6.28125V10.4688M50.25 6.28125V10.4688" stroke="#656565" stroke-width="4.1875" stroke-linecap="round" stroke-linejoin="round"/>
<path d="M60.7188 20.9375H6.28125" stroke="#656565" stroke-width="4.1875" stroke-linejoin="round"/>
</svg>
