<svg width="95" height="95" viewBox="0 0 95 95" fill="none" xmlns="http://www.w3.org/2000/svg">
<circle cx="54" cy="57" r="34" fill="#D9D9D9"/>
<g clip-path="url(#clip0_173_201)">
<path d="M42.0253 18.3293C43.2711 15.8778 43.894 14.6521 45.0425 14.2775C46.1911 13.9029 47.4169 14.5258 49.8684 15.7715L70.67 26.3421C73.1215 27.5878 74.3473 28.2107 74.7219 29.3593C75.0964 30.5078 74.4736 31.7336 73.2278 34.1851C71.9821 36.6366 71.3592 37.8623 70.2106 38.2369C69.062 38.6115 67.8363 37.9886 65.3848 36.7429L44.5831 26.1724C42.1316 24.9266 40.9059 24.3037 40.5313 23.1552C40.1567 22.0066 40.7796 20.7808 42.0253 18.3293Z" stroke="#5C5C5C" stroke-width="4"/>
<path d="M31.5161 64.3985C32.4771 62.5073 32.9576 61.5617 33.5173 61.1069C34.0769 60.6521 34.4972 60.8656 35.3377 61.2928L42.4697 64.9169C43.3102 65.3441 43.7305 65.5576 43.693 66.2778C43.6556 66.998 43.1751 67.9436 42.2141 69.8347C41.2531 71.7259 40.7726 72.6715 40.2129 73.1263C39.6533 73.5811 39.233 73.3675 38.3925 72.9404L31.2605 69.3163C30.42 68.8891 29.9997 68.6756 30.0371 67.9554C30.0746 67.2352 30.5551 66.2896 31.5161 64.3985Z" stroke="#5C5C5C" stroke-width="4"/>
<path d="M32.0102 54.1347C33.1048 51.9806 35.7384 51.1217 37.8925 52.2163L48.2933 57.5016C50.4474 58.5962 51.3063 61.2298 50.2117 63.3839C49.117 65.538 46.4835 66.3968 44.3294 65.3022L33.9286 60.017C31.7745 58.9224 30.9156 56.2888 32.0102 54.1347Z" stroke="#5C5C5C" stroke-width="4"/>
<path d="M47.6345 58.8009L60.8477 32.7988" stroke="#5C5C5C" stroke-width="4"/>
<path d="M37.2327 53.5164L49.7852 28.8145" stroke="#5C5C5C" stroke-width="4"/>
<path d="M41.9414 31.373L60.1004 47.144M37.3168 40.4738L55.4758 56.2447" stroke="#5C5C5C" stroke-width="4" stroke-linecap="round"/>
<path d="M68.5196 56.3265L73.72 58.9691M26.915 35.188L21.7146 32.5453M62.4044 62.3813L63.3181 65.1357M25.6308 43.6945L22.8673 44.5802M69.8038 47.82L72.5673 46.9342M33.0302 29.1332L32.1165 26.3788" stroke="#5C5C5C" stroke-width="4" stroke-linecap="round"/>
</g>
<defs>
<clipPath id="clip0_173_201">
<rect width="70" height="70" fill="white" transform="translate(31.7109) rotate(26.9377)"/>
</clipPath>
</defs>
</svg>
