<svg width="80" height="80" viewBox="0 0 80 80" fill="none" xmlns="http://www.w3.org/2000/svg">
<circle cx="46" cy="46" r="34" fill="#D9D9D9"/>
<path d="M22.074 44.4728C22.3681 45.5375 23.4697 46.1622 24.5344 45.868C25.5991 45.5739 26.2237 44.4723 25.9296 43.4076L22.074 44.4728ZM17.7243 21.2179L19.6521 20.6853V20.6853L17.7243 21.2179ZM13.7191 17.2673L13.1844 19.1945L13.7191 17.2673ZM9.2847 13.9615C8.22033 13.6662 7.11811 14.2896 6.8228 15.354C6.5275 16.4183 7.15094 17.5206 8.2153 17.8159L9.2847 13.9615ZM58.8364 45.6852C59.9054 45.4074 60.5469 44.3155 60.269 43.2465C59.9912 42.1774 58.8993 41.536 57.8303 41.8138L58.8364 45.6852ZM29.9242 51.1641C30.8564 54.5382 28.8082 58.0876 25.2002 59.0252L26.2063 62.8966C31.876 61.4231 35.3336 55.7233 33.7798 50.0989L29.9242 51.1641ZM25.2002 59.0252C21.5713 59.9683 17.9201 57.8639 16.981 54.4647L13.1254 55.5298C14.6722 61.1289 20.5574 64.3646 26.2063 62.8966L25.2002 59.0252ZM16.981 54.4647C16.0488 51.0906 18.097 47.5412 21.705 46.6036L20.6989 42.7321C15.0292 44.2056 11.5716 49.9055 13.1254 55.5298L16.981 54.4647ZM21.705 46.6036C25.3339 45.6605 28.9851 47.7648 29.9242 51.1641L33.7798 50.0989C32.233 44.4998 26.3478 41.2641 20.6989 42.7321L21.705 46.6036ZM25.9296 43.4076L19.6521 20.6853L15.7966 21.7505L22.074 44.4728L25.9296 43.4076ZM14.2538 15.3401L9.2847 13.9615L8.2153 17.8159L13.1844 19.1945L14.2538 15.3401ZM19.6521 20.6853C18.932 18.0785 16.8667 16.0651 14.2538 15.3401L13.1844 19.1945C14.4872 19.556 15.4627 20.5419 15.7966 21.7505L19.6521 20.6853ZM32.3551 52.5672L58.8364 45.6852L57.8303 41.8138L31.349 48.6958L32.3551 52.5672Z" fill="#5C5C5C"/>
<path d="M27.8995 25.4639C26.4849 20.3435 25.7776 17.7833 26.9782 15.7664C28.1789 13.7494 30.8185 13.0634 36.0979 11.6914L41.6975 10.2362C46.9769 8.86418 49.6166 8.17817 51.6961 9.34265C53.7757 10.5071 54.483 13.0673 55.8976 18.1878L57.398 23.6188C58.8126 28.7392 59.5199 31.2994 58.3193 33.3163C57.1186 35.3333 54.479 36.0193 49.1996 37.3913L43.6 38.8465C38.3206 40.2185 35.6809 40.9045 33.6014 39.7401C31.5218 38.5756 30.8145 36.0154 29.3999 30.895L27.8995 25.4639Z" stroke="#5C5C5C" stroke-width="4"/>
</svg>
