<svg width="84" height="80" viewBox="0 0 84 80" fill="none" xmlns="http://www.w3.org/2000/svg">
<circle cx="50" cy="46" r="34" fill="#EDEDED"/>
<path d="M46.6667 11.666C53.0105 11.7013 56.4461 11.9826 58.6872 14.2238C61.25 16.7866 61.25 20.9114 61.25 29.1609V46.6609C61.25 54.9105 61.25 59.0353 58.6872 61.5981C56.1244 64.1609 51.9996 64.1609 43.75 64.1609H26.25C18.0004 64.1609 13.8756 64.1609 11.3128 61.5981C8.75 59.0353 8.75 54.9105 8.75 46.6609V29.1609C8.75 20.9114 8.75 16.7866 11.3128 14.2238C13.5539 11.9826 16.9895 11.7013 23.3333 11.666" stroke="#5C5C5C" stroke-width="4"/>
<path d="M26.25 39.084L31.25 43.7507L43.75 32.084" stroke="#5C5C5C" stroke-width="4" stroke-linecap="round" stroke-linejoin="round"/>
<path d="M23.332 10.209C23.332 7.79274 25.2908 5.83398 27.707 5.83398H42.2904C44.7066 5.83398 46.6654 7.79274 46.6654 10.209V13.1257C46.6654 15.5419 44.7066 17.5007 42.2904 17.5007H27.707C25.2908 17.5007 23.332 15.5419 23.332 13.1257V10.209Z" stroke="#5C5C5C" stroke-width="4"/>
</svg>
