<svg width="50" height="31" viewBox="0 0 40 31" fill="none" xmlns="http://www.w3.org/2000/svg">
<path d="M0.349294 6.61113C0.53291 3.66834 2.80564 1.36207 5.63495 1.21615C9.73198 1.00485 15.5878 0.75 20 0.75C24.4122 0.75 30.268 1.00485 34.3651 1.21615C37.1944 1.36207 39.4671 3.66834 39.6507 6.61114C39.8266 9.43056 40 12.8997 40 15.6218C40 18.3438 39.8266 21.813 39.6507 24.6325C39.4671 27.5753 37.1944 29.8815 34.3651 30.0274C30.268 30.2387 24.4122 30.4936 20 30.4936C15.5878 30.4936 9.73198 30.2387 5.63495 30.0274C2.80564 29.8815 0.53291 27.5753 0.349294 24.6325C0.173377 21.813 0 18.3438 0 15.6218C0 12.8997 0.173377 9.43056 0.349294 6.61113Z" fill="white"/>
<path d="M15 8.75V21.75L27 15.25L15 8.75Z" fill="black"/>
</svg>
